<?xml version="1.0" encoding="utf-8"?>
<svg xmlns="http://www.w3.org/2000/svg" viewBox="0 0 500 500">
  <title/>
  <line style="fill: none; stroke-linecap: round; stroke-linejoin: round; stroke-width: 32; stroke: rgb(179, 39, 0);" x1="248.72" x2="248.72" y1="247.566" y2="346.536"/>
  <line style="fill: none; stroke-linecap: round; stroke-linejoin: round; stroke-width: 32; stroke: rgb(179, 39, 0);" x1="300.246" x2="199.753" y1="300.485" y2="300.485"/>
  <g id="grid_system" transform="matrix(1, 0, 0, 1, 199.747284, 188.223114)"/>
  <g id="_icons" transform="matrix(12.800673, 0, 0, 13.25449, 166.587265, -34.819118)" style="">
    <g>
      <path d="M 23.192 29.134 L 11.204 8.629 C 10.295 6.891 8.479 6.022 6.481 6.022 C 4.483 6.022 2.666 6.891 1.759 8.629 L -10.23 29.134 C -11.137 30.699 -11.137 32.784 -10.23 34.348 C -9.321 35.912 -7.504 36.955 -5.507 36.955 L 18.469 36.955 C 20.467 36.955 22.102 35.912 23.192 34.348 C 24.282 32.784 24.1 30.873 23.192 29.134 Z M 21.44 33.263 C 21.306 33.547 20.12 34.845 18.863 35.125 L -5.762 34.932 C -6.981 34.746 -8.129 33.475 -8.31 33.127 C -8.492 32.78 -8.843 31.742 -8.297 30.873 L 3.473 10.029 C 4.018 9.16 5.472 8.148 6.607 8.133 C 7.742 8.119 9.186 9.554 9.63 10.096 L 21.917 31.395 C 22.256 32.445 21.44 33.424 21.44 33.263 Z" style="paint-order: stroke; fill: rgb(179, 39, 0);"/>
    </g>
  </g>
</svg>