<?xml version="1.0" encoding="utf-8"?>
<svg xmlns="http://www.w3.org/2000/svg" viewBox="0 0 500 500">
  <path d="M 92.981 112.752 L 318.872 112.752 L 318.872 338.788 L 92.981 338.788 L 92.981 112.752 Z" fill="none" style="stroke-width: 1;"/>
  <path d="M 250 212.327 C 229.199 212.327 212.352 229.186 212.352 250 C 212.352 270.814 229.199 287.673 250 287.673 C 270.801 287.673 287.649 270.814 287.649 250 C 287.649 229.186 270.801 212.327 250 212.327 Z M 334.145 240.582 C 329.815 201.308 298.661 170.134 259.412 165.802 L 259.412 146.4 L 240.588 146.4 L 240.588 165.802 C 201.339 170.134 170.185 201.308 165.856 240.582 L 146.467 240.582 L 146.467 259.418 L 165.856 259.418 C 170.185 298.692 201.339 329.866 240.588 334.198 L 240.588 353.6 L 259.412 353.6 L 259.412 334.198 C 298.661 329.866 329.815 298.692 334.145 259.418 L 353.534 259.418 L 353.534 240.582 L 334.145 240.582 Z M 250 315.927 C 213.622 315.927 184.115 286.401 184.115 250 C 184.115 213.599 213.622 184.073 250 184.073 C 286.378 184.073 315.885 213.599 315.885 250 C 315.885 286.401 286.378 315.927 250 315.927 Z" style="stroke-width: 1; fill: rgb(255, 255, 255);"/>
</svg>